<?xml version="1.0" encoding="UTF-8" standalone="no"?>
<!DOCTYPE svg PUBLIC "-//W3C//DTD SVG 1.1//EN" "http://www.w3.org/Graphics/SVG/1.1/DTD/svg11.dtd">
<svg width="100%" height="100%" viewBox="0 0 21 16" version="1.1" xmlns="http://www.w3.org/2000/svg" xmlns:xlink="http://www.w3.org/1999/xlink" xml:space="preserve" xmlns:serif="http://www.serif.com/" style="fill-rule:evenodd;clip-rule:evenodd;stroke-linejoin:round;stroke-miterlimit:1.41421;">
    <g transform="matrix(1,0,0,1,-863.788,-110.974)">
        <g transform="matrix(-1.29998,-1.59202e-16,1.22235e-16,-0.998123,1086.09,1813.77)">
            <path id="Tiles-Big-Icon" serif:id="Tiles Big Icon" d="M169.957,1706L165.087,1706C164.511,1706 164.043,1705.53 164.043,1704.96L164.043,1700.09C164.043,1699.51 164.511,1699.04 165.087,1699.04L169.957,1699.04C170.533,1699.04 171,1699.51 171,1700.09L171,1704.96C171,1705.53 170.533,1706 169.957,1706ZM169.957,1696.96L165.087,1696.96C164.511,1696.96 164.043,1696.49 164.043,1695.91L164.043,1691.04C164.043,1690.47 164.511,1690 165.087,1690L169.957,1690C170.533,1690 171,1690.47 171,1691.04L171,1695.91C171,1696.49 170.533,1696.96 169.957,1696.96ZM160.913,1706L156.043,1706C155.467,1706 155,1705.53 155,1704.96L155,1700.09C155,1699.51 155.467,1699.04 156.043,1699.04L160.913,1699.04C161.489,1699.04 161.957,1699.51 161.957,1700.09L161.957,1704.96C161.957,1705.53 161.489,1706 160.913,1706ZM160.913,1696.96L156.043,1696.96C155.467,1696.96 155,1696.49 155,1695.91L155,1691.04C155,1690.47 155.467,1690 156.043,1690L160.913,1690C161.489,1690 161.957,1690.47 161.957,1691.04L161.957,1695.91C161.957,1696.49 161.489,1696.96 160.913,1696.96Z" style="fill:rgb(0,101,153);"/>
        </g>
    </g>
</svg>
